<svg xmlns="http://www.w3.org/2000/svg" shape-rendering="geometricPrecision" text-rendering="geometricPrecision" image-rendering="optimizeQuality" fill-rule="evenodd" clip-rule="evenodd" viewBox="0 0 512 444.296"><path fill="#192A33" fill-rule="nonzero" d="M368.806 243.028l119.233 40.141v161.125H362.124V240.78z"/><path fill="#E6D7BC" d="M367.199 247.827l115.765 38.972v152.419H367.199z"/><path fill="#192A33" fill-rule="nonzero" d="M503.663 280.279c6.624 2.467 9.995 9.838 7.529 16.463-2.467 6.625-9.838 9.996-16.463 7.529l-128.588-49.006v-26.509l137.522 51.523zM422.378 306.706c7.545 0 14.403 3.085 19.371 8.053 4.969 4.969 8.053 11.826 8.053 19.371v50.424h-54.848V334.13c0-7.533 3.085-14.384 8.052-19.353l.019-.019c4.968-4.967 11.82-8.052 19.353-8.052zm12.199 15.224c-3.132-3.132-7.453-5.078-12.199-5.078-4.755 0-9.078 1.941-12.21 5.068-3.127 3.132-5.069 7.455-5.069 12.21v40.278h34.558V334.13c0-4.746-1.947-9.067-5.08-12.2z"/><path fill="#71C8F8" d="M422.378 311.778c12.294 0 22.352 10.061 22.352 22.352v45.351h-44.704V334.13c0-12.294 10.058-22.352 22.352-22.352z"/><path fill="#192A33" fill-rule="nonzero" d="M27.133 282.12l122.746-50.14v212.314H23.96V283.416z"/><path fill="#E6D7BC" d="M144.803 239.51L29.035 286.799v152.419h115.768z"/><path fill="#192A33" fill-rule="nonzero" d="M8.337 280.279c-6.624 2.467-9.995 9.838-7.529 16.463 2.467 6.625 9.838 9.996 16.463 7.529l128.588-49.006v-26.509L8.337 280.279zM89.622 316.852a17.21 17.21 0 00-12.199 5.059v.019c-3.133 3.133-5.08 7.454-5.08 12.2v40.278h34.558V334.13c0-4.755-1.942-9.078-5.069-12.21-3.132-3.127-7.455-5.068-12.21-5.068zm-19.361-2.083c4.978-4.975 11.833-8.063 19.361-8.063 7.533 0 14.385 3.085 19.353 8.052l.019.019c4.967 4.969 8.052 11.82 8.052 19.353v50.424H62.198V334.13c0-7.545 3.084-14.402 8.053-19.371l.01.01z"/><path fill="#71C8F8" d="M89.622 311.778c-12.294 0-22.352 10.061-22.352 22.352v45.351h44.704V334.13c0-12.294-10.058-22.352-22.352-22.352z"/><path fill="#192A33" fill-rule="nonzero" d="M363.146 444.296H139.621V166.351l114.287-85.069c38.113 28.062 76.214 56.143 114.31 84.228v278.786h-5.072z"/><path fill="#E6D7BC" d="M144.694 439.223h218.452V168.057L253.92 87.575l-109.226 81.304z"/><path fill="#381E18" fill-rule="nonzero" d="M253.921 268.167c16.468 0 31.437 6.735 42.286 17.585 10.85 10.85 17.585 25.82 17.585 42.286v116.257H194.049V328.038c0-16.468 6.735-31.438 17.584-42.287 10.85-10.849 25.819-17.584 42.288-17.584z"/><path fill="#8A4535" d="M253.921 273.24c30.139 0 54.799 24.665 54.799 54.798v111.185H199.122V328.038c0-30.139 24.659-54.798 54.799-54.798z"/><path fill="#192A33" fill-rule="nonzero" d="M253.816 157.817c9.539 0 18.177 3.868 24.428 10.119 6.251 6.252 10.119 14.889 10.119 24.428 0 9.54-3.868 18.177-10.119 24.428-6.251 6.252-14.889 10.119-24.428 10.119-9.539 0-18.175-3.867-24.427-10.119-6.251-6.251-10.118-14.888-10.118-24.428 0-9.539 3.867-18.176 10.118-24.428 6.252-6.251 14.888-10.119 24.427-10.119z"/><circle fill="#71C8F8" cx="253.817" cy="192.364" r="23.635"/><path fill="#381E18" fill-rule="nonzero" d="M256.318 273.238v165.986h-4.795V273.238z"/><path fill="#192A33" d="M264.742 0v25.291h28.752v21.642h-28.752v30.289l130.523 102.149c6.452 5.039 7.596 14.355 2.557 20.806-5.039 6.451-14.354 7.596-20.806 2.557L253.949 106.42l-123.067 97.078c-6.419 5.071-15.736 3.978-20.807-2.441-5.071-6.42-3.978-15.736 2.441-20.807L243.099 77.243v-30.31h-27.705V25.291h27.705V0h21.643z"/></svg>